<?xml version="1.0" encoding="utf-8"?>
<!-- Generator: Adobe Illustrator 16.0.0, SVG Export Plug-In . SVG Version: 6.00 Build 0)  -->
<!DOCTYPE svg PUBLIC "-//W3C//DTD SVG 1.1//EN" "http://www.w3.org/Graphics/SVG/1.1/DTD/svg11.dtd">
<svg version="1.1" id="Layer_1" xmlns="http://www.w3.org/2000/svg" xmlns:xlink="http://www.w3.org/1999/xlink" x="0px" y="0px" viewBox="0 0 960 480" enable-background="new 0 0 960 480" xml:space="preserve">
<path fill="none" stroke="#625F60" stroke-width="2" stroke-miterlimit="10" d="M110.967,249.186
	c24.809-0.012,49.616-0.059,74.423,0.007c20.48,0.059,29.316,14.022,29.407,46.766c0.1,37.28,0.12,74.551,0.002,111.822
	c-0.102,31.72-8.957,45.978-28.725,46.027c-50.001,0.141-100.001,0.137-150.003-0.022c-19.012-0.068-28.067-14.581-28.162-44.892
	c-0.117-38.536-0.142-77.079,0.018-115.613c0.121-29.288,9.268-43.904,27.459-44.044C60.579,249.037,85.777,249.186,110.967,249.186
	z"/>
<path fill="none" stroke="#625F60" stroke-width="2" stroke-miterlimit="10" d="M356.333,252.144
	c24.81-0.011,49.615-0.059,74.422,0.008c20.481,0.06,29.317,14.021,29.407,46.767c0.1,37.277,0.121,74.549,0.002,111.821
	c-0.102,31.719-8.956,45.978-28.725,46.026c-50.001,0.141-100.001,0.138-150.002-0.021c-19.012-0.069-28.067-14.582-28.162-44.894
	c-0.117-38.535-0.142-77.076,0.018-115.611c0.121-29.287,9.268-43.906,27.459-44.043
	C305.945,251.995,331.143,252.144,356.333,252.144z"/>
<path fill="none" stroke="#625F60" stroke-width="2" stroke-miterlimit="10" d="M602.303,250.46
	c24.81-0.012,49.614-0.059,74.422,0.007c20.48,0.059,29.318,14.022,29.408,46.766c0.1,37.28,0.119,74.551,0.002,111.822
	c-0.102,31.72-8.957,45.978-28.727,46.027c-50,0.141-100,0.137-150.001-0.022c-19.013-0.068-28.068-14.581-28.163-44.894
	c-0.116-38.534-0.142-77.077,0.018-115.611c0.122-29.288,9.269-43.904,27.459-44.044C551.914,250.312,577.112,250.46,602.303,250.46
	z"/>
<path fill="none" stroke="#625F60" stroke-width="2" stroke-miterlimit="10" d="M848.271,249.595
	c24.81-0.011,49.616-0.059,74.424,0.008c20.48,0.06,29.317,14.021,29.407,46.767c0.1,37.277,0.119,74.549,0.002,111.82
	c-0.102,31.72-8.956,45.978-28.725,46.027c-50.003,0.141-100.003,0.138-150.003-0.022c-19.012-0.068-28.067-14.581-28.162-44.893
	c-0.117-38.535-0.142-77.076,0.018-115.611c0.122-29.287,9.268-43.906,27.458-44.043
	C797.883,249.446,823.081,249.595,848.271,249.595z"/>
<g>
	<path fill="none" stroke="#625F60" stroke-width="2" stroke-miterlimit="10" d="M272.787,355.244
		c-0.062-0.437-0.375-0.744-0.763-0.744c-0.386,0-0.707,0.318-0.766,0.744l-1.802,16.438l1.802,16.069
		c0.048,0.431,0.374,0.745,0.766,0.745c0.382,0,0.696-0.303,0.763-0.734l2.045-16.08L272.787,355.244z"/>
	<path fill="none" stroke="#625F60" stroke-width="2" stroke-miterlimit="10" d="M301.134,340.081c-0.739,0-1.346,0.598-1.386,1.369
		l-1.43,30.246l1.43,19.545c0.041,0.761,0.647,1.365,1.386,1.365c0.736,0,1.343-0.604,1.387-1.37v0.005l1.619-19.545l-1.619-30.246
		C302.483,340.679,301.871,340.081,301.134,340.081"/>
	<path fill="none" stroke="#625F60" stroke-width="2" stroke-miterlimit="10" d="M286.464,350.583c-0.574,0-1.033,0.453-1.079,1.058
		l-1.613,20.041l1.613,19.393c0.046,0.599,0.51,1.052,1.079,1.052c0.564,0,1.022-0.453,1.066-1.052l1.834-19.393l-1.834-20.041
		C287.486,351.047,287.028,350.583,286.464,350.583"/>
	<path fill="none" stroke="#625F60" stroke-width="2" stroke-miterlimit="10" d="M316.056,392.606c0.917,0,1.656-0.745,1.696-1.688
		l1.409-19.222l-1.403-40.264c-0.041-0.943-0.785-1.683-1.702-1.683c-0.923,0-1.669,0.739-1.703,1.683l-1.248,40.264l1.248,19.222
		C314.386,391.861,315.133,392.606,316.056,392.606"/>
	<path fill="none" stroke="#625F60" stroke-width="2" stroke-miterlimit="10" d="M346.585,392.692c1.26,0,2.297-1.035,2.325-2.309
		v0.01v-0.01l0.979-18.665l-0.979-46.5c-0.021-1.278-1.065-2.319-2.325-2.319c-1.265,0-2.303,1.041-2.325,2.319l-0.874,46.478
		c0,0.033,0.874,18.697,0.874,18.697C344.283,391.657,345.321,392.692,346.585,392.692"/>
	<path fill="none" stroke="#625F60" stroke-width="2" stroke-miterlimit="10" d="M331.201,392.623c1.099,0,1.985-0.88,2.011-2.002
		v0.01l1.192-18.924l-1.197-40.555c-0.026-1.121-0.913-1.995-2.006-1.995c-1.104,0-1.983,0.874-2.016,1.995l-1.054,40.555
		l1.06,18.924C329.213,391.743,330.097,392.623,331.201,392.623"/>
	<path fill="none" stroke="#625F60" stroke-width="2" stroke-miterlimit="10" d="M423.715,347.713c-3.084,0-6.024,0.626-8.711,1.749
		c-1.791-20.294-18.804-36.208-39.563-36.208c-5.071,0-10.018,1.004-14.398,2.691c-1.696,0.659-2.149,1.333-2.166,2.649v71.454
		c0.016,1.375,1.082,2.525,2.429,2.665c0.055,0,62.005,0.032,62.409,0.032c12.43,0,22.512-10.077,22.512-22.516
		C446.227,357.796,436.151,347.713,423.715,347.713"/>
</g>
<path fill="none" stroke="#625F60" stroke-width="2" stroke-miterlimit="10" d="M622.744,379.396
	c-1.646,0.779-4.786,1.463-7.13,1.528c-7.069,0.186-8.444-4.97-8.503-8.712v-27.5h17.741v-13.378h-17.672v-22.507h-12.945
	c-0.213,0-0.583,0.189-0.633,0.663c-0.757,6.887-3.981,18.976-17.382,23.807v11.413h8.937v28.86c0,9.885,7.293,23.926,26.538,23.597
	c6.491-0.112,13.702-2.83,15.298-5.173L622.744,379.396z"/>
<path fill="none" stroke="#625F60" stroke-width="2" stroke-miterlimit="10" d="M901.206,321.776
	c-3.701,1.643-7.687,2.753-11.866,3.252c4.27-2.558,7.543-6.605,9.089-11.427c-3.995,2.364-8.419,4.082-13.116,5.011
	c-3.771-4.015-9.138-6.521-15.084-6.521c-11.405,0-20.65,9.247-20.65,20.655c0,1.617,0.182,3.193,0.535,4.707
	c-17.168-0.861-32.389-9.087-42.577-21.584c-1.779,3.049-2.8,6.602-2.8,10.386c0,7.163,3.648,13.489,9.188,17.191
	c-3.383-0.106-6.569-1.035-9.353-2.583c-0.005,0.088-0.005,0.174-0.005,0.261c0,10.009,7.122,18.357,16.573,20.253
	c-1.735,0.471-3.56,0.723-5.444,0.723c-1.331,0-2.623-0.13-3.885-0.369c2.626,8.207,10.258,14.18,19.298,14.347
	c-7.074,5.546-15.978,8.846-25.655,8.846c-1.668,0-3.313-0.099-4.929-0.289c9.138,5.859,19.995,9.275,31.667,9.275
	c37.995,0,58.77-31.476,58.77-58.766c0-0.896-0.022-1.788-0.06-2.674C894.936,329.555,898.438,325.918,901.206,321.776"/>
<path fill="none" stroke="#625F60" stroke-width="2" stroke-miterlimit="10" d="M115.398,303.799
	c-27.855,0-50.442,22.585-50.442,50.449c0,22.284,14.453,41.192,34.501,47.864c2.523,0.465,3.444-1.094,3.444-2.429
	c0-1.204-0.045-4.375-0.069-8.584c-14.034,3.05-16.994-6.769-16.994-6.769c-2.292-5.824-5.599-7.378-5.599-7.378
	c-4.582-3.127,0.346-3.066,0.346-3.066c5.06,0.358,7.725,5.197,7.725,5.197c4.501,7.707,11.806,5.487,14.682,4.194
	c0.457-3.264,1.763-5.483,3.204-6.746c-11.203-1.271-22.979-5.601-22.979-24.933c0-5.508,1.965-10.011,5.193-13.537
	c-0.521-1.27-2.251-6.396,0.492-13.341c0,0,4.236-1.355,13.872,5.17c4.025-1.118,8.339-1.676,12.63-1.698
	c4.283,0.022,8.6,0.58,12.63,1.698c9.627-6.525,13.858-5.17,13.858-5.17c2.752,6.945,1.021,12.071,0.499,13.349
	c3.236,3.527,5.191,8.029,5.191,13.538c0,19.378-11.795,23.646-23.037,24.894c1.81,1.557,3.424,4.633,3.424,9.34
	c0,6.747-0.062,12.185-0.062,13.842c0,1.348,0.908,2.918,3.467,2.426c20.032-6.688,34.472-25.584,34.472-47.861
	C165.847,326.384,143.259,303.799,115.398,303.799"/>
<polyline fill="none" stroke="#625F60" stroke-width="2" stroke-miterlimit="10" points="113.594,249.132 113.594,209.623
	423.363,28.651 434.832,28.651 "/>
<polyline fill="none" stroke="#625F60" stroke-width="2" stroke-miterlimit="10" points="354.466,251.681 354.466,215.996
	423.363,88.55 436.106,88.55 "/>
<polyline fill="none" stroke="#625F60" stroke-width="2" stroke-miterlimit="10" points="857.875,249.132 857.875,209.623
	566.28,150.999 554.811,150.999 "/>
<polyline fill="none" stroke="#625F60" stroke-width="2" stroke-miterlimit="10" points="602.984,250.406 602.984,210.898
	546.085,210.898 "/>
<text transform="matrix(1 0 0 1 441.1455 41.0107)" fill="#625F60" font-family="'Libre Baskerville'" font-size="21">MY CODE</text>
<g>
	<text transform="matrix(1 0 0 1 441.1455 100.3896)" fill="#625F60" font-family="'Libre Baskerville'" font-size="21">MY MUSIC PROJECT</text>
</g>
<g>
	<text transform="matrix(1 0 0 1 423.1621 215.7954)" fill="#625F60" font-family="'Libre Baskerville'" font-size="21">ART STUFF</text>
</g>
<g>
	<text transform="matrix(1 0 0 1 423.1621 156.0967)" fill="#625F60" font-family="'Libre Baskerville'" font-size="21">MY WORDS</text>
</g>
</svg>
