<?xml version="1.0" encoding="utf-8"?>
<!-- Generator: Adobe Illustrator 16.0.0, SVG Export Plug-In . SVG Version: 6.00 Build 0)  -->
<!DOCTYPE svg PUBLIC "-//W3C//DTD SVG 1.1//EN" "http://www.w3.org/Graphics/SVG/1.1/DTD/svg11.dtd">
<svg version="1.1" id="Layer_1" xmlns="http://www.w3.org/2000/svg" xmlns:xlink="http://www.w3.org/1999/xlink" x="0px" y="0px"
	 width="1440px" height="980px" viewBox="0 0 1440 980" enable-background="new 0 0 1440 980" xml:space="preserve">
<rect fill="#F1EFF0" width="1440" height="979"/>
<path fill="#272F32" d="M1440,620.311c-19.793-5.841-39.408-11.939-59.498-17.345c-5.176-1.394-12.723-1.932-17.68-0.622
	c-74.306,19.653-148.358,39.678-222.456,59.641c-1.601,0.43-3.013,1.139-7.884,3.019c22.209,2.007,41.182,5.181,60.118,5.101
	c30.678-0.13,50.813,7.761,62.452,25.363c2.76,4.173,7.664,8.744,12.703,13.721c34.307-14.284,68.034-29.288,102.955-43.828
	c4.664,14.021,9.028,27.136,14.229,42.761c12.52-15.484,23.195-28.692,34.193-42.293c7.219,2.839,14.043,5.52,20.866,8.201
	c0,101.657,0,203.315,0,304.974c-69.779-0.04-139.56-0.114-209.336-0.116c-384.402-0.008-831.409-0.001-1215.812,0.002
	c-4.851,0-9.702,0-14.853,0c0-108.51,0-215.812,0-324.27c6.833,1.837,12.612,3.342,18.328,4.938
	c93.462,26.103,186.859,52.298,280.505,78.136c5.868,1.619,14.503,1.83,20.438,0.393c50.037-12.123,99.81-24.681,149.486-37.381
	c8.696-2.223,15.676-2.42,24.506,0.401c61.326,19.596,123.09,38.649,184.457,58.194c7.836,2.495,13.714,2.456,21.629,0.238
	c199.396-55.861,461.559-111.493,660.928-167.389c8.107-2.274,14.032-2.054,21.621,0.372c19.115,6.108,38.701,11.636,58.102,17.395
	C1440,613.379,1440,616.845,1440,620.311z M487.969,710.3c-3.356-1.037-8.193-1.63-11.587-0.944
	c-29.572,5.959-58.974,12.256-88.319,20.538c13.168,0,26.424,0.599,39.479-0.16c14.133-0.821,24.841,1.755,33.347,8.846
	c5.456,4.549,11.654,8.745,18.95,14.159c3.873-4.597,5.907-6.758,7.573-9.026c9.968-13.567,9.923-13.537,33.546-9.375
	c28.568,5.034,57.169,9.996,85.756,14.988c0.179-0.579,0.358-1.159,0.538-1.738C567.514,735.126,527.818,722.615,487.969,710.3z"/>
<g>
	<path fill="#FF3D2E" d="M596.068,687.636c-1.222-1.476-2.854-2.96-3.89-4.78c-8.923-15.688-15.407-32.437-21.694-49.311
		c-9.963-26.763-7.183-16.908-17.422-43.573c-5.013-13.038-10.213-25.995-15.237-39.027c-6.216-16.134-12.323-32.31-18.528-48.444
		c-6.859-17.875-13.877-35.693-20.649-53.601c-4.853-12.822-9.332-25.785-14.124-38.622c-4.286-11.496-8.654-22.966-13.218-34.346
		c-4.156-10.356-8.928-20.473-12.895-30.896c-6.512-17.152-12.499-34.503-18.89-51.716c-3.802-10.252-8.062-20.336-11.92-30.576
		c-4.319-11.473-1.299-14.612,10.797-15.614c5.118-0.421,7.03,2.945,10.606,3.945c6.372,1.77,8.432,6.337,9.723,12.46
		c1.573,7.465,4.271,14.747,6.991,21.918c9.043,23.879,18.341,47.658,27.487,71.501c5.892,15.342,11.533,30.787,17.56,46.078
		c10.005,25.392,19.252,51.066,29.304,76.439c13.216,33.344,26.265,66.763,39.267,100.195c5.963,15.342,11.523,30.836,17.494,46.176
		c4.248,10.94-3.416-14.988-0.026-3.799c2.991,9.872,9.204,18.639,9.575,29.459c0.109,3.315,2.715,6.52,4.027,9.83
		c2.896,7.288,1.785,15.181-3.115,19.088C603.963,683.084,600.107,685.08,596.068,687.636z M476.768,365.115
		c-0.586,0.061-1.164,0.128-1.751,0.199c0.536,2.619,0.715,5.369,1.652,7.839c9.218,24.367,18.549,48.69,27.896,73.006
		c0.689,1.784,1.706,3.44,2.548,5.165c4.78,9.772,11.381,18.764,12.724,30.025c0.214,1.857,1.312,3.592,1.929,5.408
		c1.661,4.896,3.225,9.833,4.954,14.702c1.267,3.586,2.72,7.104,4.095,10.653c1.234-2.079,1.161-3.661,0.758-5.154
		c-2.226-8.175-4.086-16.485-6.92-24.456c-4.4-12.396-9.265-24.643-14.322-36.785c-4.092-9.828-8.924-19.337-13.119-29.115
		c-2.678-6.241-4.701-12.769-7.211-19.093c-2.229-5.583-4.805-11.029-7.082-16.597C480.768,375.681,478.808,370.384,476.768,365.115
		z M582.721,630.472c2.877,9.023,5.372,16.838,8.203,25.734C591.807,646.271,589.125,638.582,582.721,630.472z M538.512,528.368
		c-0.504,0.169-1.02,0.334-1.528,0.499c0.719,2.353,1.43,4.705,2.143,7.062c0.525-0.172,1.052-0.341,1.581-0.513
		C539.975,533.069,539.248,530.719,538.512,528.368z"/>
	<g>
		<path fill="#FF3D2E" d="M720.935,405.16c-8.16-0.044-14.571,4.186-20.997,8.217c-5.064,3.18-7.032,8.696-4.637,14.252
			c3.298,7.663,7.471,14.954,12.088,24.003c5.916-8.717,11.039-16.062,15.938-23.558c2.229-3.408,4.358-6.965,5.942-10.711
			C732.509,409.72,729.145,405.205,720.935,405.16z"/>
		<path fill="#FF3D2E" d="M743.578,407.097c0.091-5.561-28.355-62.688-28.355-62.688l-40.155-114.243l0.004-0.001
			c-5.557-12.95-11.06-25.92-16.674-38.847c-3.361-7.734-4.986-9.013-13.067-7.999c-6.761,0.85-13.698,1.973-19.997,4.412
			c-13.508,5.222-27.528,9.955-39.724,17.492c-17.159,10.607-33.157,23.133-48.753,36.159c-11.29,9.427-23.769,17.595-36.392,25.22
			c-8.59,5.188-18.084,9.417-29.875,7.665c1.15,4.228,1.867,8.236,3.312,11.967c4.146,10.688,8.68,21.229,12.884,31.904
			c5.915,15.003,11.738,30.043,17.463,45.122c7.015,18.429,13.979,36.876,20.813,55.38c3.518,9.512,6.648,19.16,10.049,28.712
			c1.182,3.337,2.895,6.497,3.896,9.873c5.914,19.993,12.688,39.664,20.918,58.83c1.14,2.639,2.376,5.236,3.476,7.646
			c5.449-3.138,9.811-6.383,14.689-8.327c12.366-4.943,23.483-11.938,33.641-20.314c17.76-14.659,34.16-30.753,49.368-48.097
			c5.585-6.359,11.953-12.048,18.052-17.94c1.24-1.196,2.899-1.947,4.287-2.858c6.944,12.51,13.61,24.442,20.19,36.412
			c1.504,2.748,2.875,5.562,4.275,8.364C720.875,452.618,743.502,412.158,743.578,407.097z"/>
		<path fill="#FF3D2E" d="M959.716,146.907c-4.185-1.481-7.646-4.962-11.708-5.929c-17.877-4.258-36.046-6.849-54.491-6.597
			c-15.713,0.212-31.06,3.004-46.252,6.895c-23.273,5.953-45.166,15.231-66.098,26.916c-19.287,10.781-34.775,26.57-51.953,40.096
			c-12.338,9.72-25.19,18.326-38.996,25.656c-1.822,0.966-3.722,1.811-5.752,2.679c9.245,24.32,34.974,91.635,42.099,106.156
			c8.732,17.798,27.568,59.309,25.428,65.665c-1.634,4.836-23.914,51.273-34.479,73.225c1.233,0.525,2.603,0.933,4.114,1.225
			c11.905,2.263,22.367-1.252,32.182-6.965c6.074-3.53,11.562-8.231,16.795-12.968c5.238-4.749,10.232-9.885,14.624-15.422
			c7.141-9.017,13.506-18.646,20.576-27.729c7.053-9.078,14.565-17.793,21.882-26.664c6.84-8.288,15.574-14.498,23.392-21.688
			c15.396-14.158,32.633-25.527,51.059-34.681c16.854-8.365,34.719-14.996,52.685-20.688c10.054-3.18,20.885-5.538,31.871-4.135
			c-0.233-6.376-2.802-10.071-7.445-11.973c-2.734-1.111-5.183-2.977-7.673-4.623c-14.147-9.35-26.832-20.938-42.271-28.267
			c-11.107-5.274-21.956-11.42-34.553-12.88c-9.921-1.148-19.812-2.645-30.74-4.126c4.633-8.507,8.335-17.083,13.619-24.537
			c6.629-9.354,13.967-18.381,22.068-26.484c11.776-11.791,24.222-22.975,36.968-33.721c6.203-5.24,13.627-9.098,20.72-13.206
			C960.226,150.491,961.582,148.91,959.716,146.907z"/>
	</g>
</g>
<line fill="none" x1="643" y1="512.5" x2="782" y2="512.5"/>
<g>
	<g enable-background="new    ">
		<path fill="#272F32" d="M369.482,292.244V273.09c0-3.831-1.341-7.087-4.022-9.769s-5.938-4.022-9.769-4.022h-3.639h-20.303h-3.64
			c-3.831,0-7.087,1.341-9.769,4.022s-4.022,5.938-4.022,9.769v23.942v31.222v13.791v17.431v23.942c0,3.831,1.341,7.087,4.022,9.769
			s5.938,4.022,9.769,4.022h3.64h20.303h3.639c3.831,0,7.087-1.341,9.769-4.022s4.022-5.938,4.022-9.769v-19.154v-4.788v-3.64
			h13.791v27.582c0,5.108-1.278,9.769-3.831,13.982c-2.556,4.214-5.875,7.536-9.96,9.96c-4.214,2.428-8.811,3.64-13.791,3.64
			h-27.582c-4.98,0-9.577-1.212-13.791-3.64c-4.088-2.424-7.407-5.746-9.96-9.96c-2.556-4.214-3.831-8.874-3.831-13.982V273.09
			c0-5.105,1.275-9.769,3.831-13.982c2.553-4.214,5.872-7.533,9.96-9.96c4.214-2.425,8.811-3.64,13.791-3.64h27.582
			c4.98,0,9.577,1.215,13.791,3.64c4.085,2.427,7.404,5.746,9.96,9.96c2.553,4.214,3.831,8.877,3.831,13.982v27.582h-13.791v-3.64
			V292.244z"/>
		<path fill="#272F32" d="M477.511,249.147c4.085,2.427,7.404,5.746,9.96,9.96c2.553,4.214,3.83,8.877,3.83,13.982v110.328
			c0,5.108-1.277,9.769-3.83,13.982c-2.556,4.214-5.875,7.536-9.96,9.96c-4.214,2.428-8.811,3.64-13.791,3.64h-27.582
			c-4.98,0-9.577-1.212-13.791-3.64c-4.088-2.424-7.407-5.746-9.96-9.96c-2.556-4.214-3.831-8.874-3.831-13.982V273.09
			c0-5.105,1.275-9.769,3.831-13.982c2.553-4.214,5.872-7.533,9.96-9.96c4.214-2.425,8.811-3.64,13.791-3.64h27.582
			C468.7,245.508,473.297,246.723,477.511,249.147z M477.511,359.476v-17.431v-13.791v-31.222V273.09
			c0-3.831-1.341-7.087-4.022-9.769s-5.938-4.022-9.769-4.022h-3.639h-20.303h-3.64c-3.831,0-7.087,1.341-9.769,4.022
			s-4.022,5.938-4.022,9.769v23.942v31.222v13.791v17.431v23.942c0,3.831,1.341,7.087,4.022,9.769s5.938,4.022,9.769,4.022h3.64
			h20.303h3.639c3.831,0,7.087-1.341,9.769-4.022s4.022-5.938,4.022-9.769V359.476z"/>
		<path fill="#272F32" d="M585.54,249.147c4.085,2.427,7.404,5.746,9.96,9.96c2.553,4.214,3.831,8.877,3.831,13.982v110.328
			c0,5.108-1.278,9.769-3.831,13.982c-2.556,4.214-5.875,7.536-9.96,9.96c-4.214,2.428-8.811,3.64-13.791,3.64h-27.582h-13.791
			h-13.791v-27.582V273.09v-27.582h13.791h13.791h27.582C576.729,245.508,581.326,246.723,585.54,249.147z M585.54,359.476v-17.431
			v-13.791v-31.222V273.09c0-3.831-1.341-7.087-4.022-9.769s-5.938-4.022-9.769-4.022h-3.64h-20.303h-3.64h-13.791v13.791v23.942
			v31.222v13.791v17.431v23.942v13.791h13.791h3.64h20.303h3.64c3.831,0,7.087-1.341,9.769-4.022s4.022-5.938,4.022-9.769V359.476z"
			/>
		<path fill="#272F32" d="M638.404,259.299v68.955h55.164v13.791h-55.164v55.164h68.955V411h-68.955h-13.791V245.508h13.791h68.955
			v13.791H638.404z"/>
		<path fill="#272F32" d="M801.596,249.147c4.086,2.427,7.404,5.746,9.961,9.96c2.553,4.214,3.83,8.877,3.83,13.982v110.328V411
			h-13.791v-3.64v-10.151v-13.791v-23.942v-17.431h-55.164v17.431v23.942v13.791v10.151V411h-13.791v-27.582V273.09v-27.582h13.791
			h13.791h27.582C792.785,245.508,797.383,246.723,801.596,249.147z M801.596,328.254v-31.222V273.09
			c0-3.831-1.34-7.087-4.021-9.769s-5.938-4.022-9.77-4.022h-3.639h-20.303h-3.641h-13.791v13.791v23.942v31.222H801.596z"/>
		<path fill="#272F32" d="M909.625,407.36c-4.213,2.428-8.811,3.64-13.791,3.64c-2.043,0-4.342-0.317-6.895-0.958
			c-2.299-0.509-4.598-1.403-6.896-2.682c-2.299,1.278-4.596,2.173-6.895,2.682c-2.557,0.641-4.855,0.958-6.896,0.958
			c-4.979,0-9.576-1.212-13.791-3.64c-4.088-2.424-7.406-5.746-9.959-9.96c-2.557-4.214-3.832-8.874-3.832-13.982V273.09v-27.582
			h13.791v3.64v10.151v13.791v23.942v17.431v13.791v31.222v23.942c0,3.831,1.342,7.087,4.023,9.769s5.938,4.022,9.768,4.022
			c0.639,0,1.213-0.03,1.725-0.096c0.508-0.062,1.084-0.158,1.725-0.287c0.637-0.255,1.211-0.479,1.723-0.671
			c0.51-0.191,1.084-0.479,1.725-0.861v-23.752v-6.32v-8.619v-28.349v-13.791h13.791v13.791v28.349v8.619v6.32v23.752
			c0.637,0.383,1.211,0.67,1.723,0.861c0.51,0.191,1.084,0.416,1.725,0.671c0.637,0.129,1.213,0.225,1.725,0.287
			c0.508,0.065,1.082,0.096,1.723,0.096c3.832,0,7.088-1.341,9.77-4.022s4.021-5.938,4.021-9.769v-23.942v-31.222v-13.791v-17.431
			V273.09v-13.791v-10.151v-3.64h13.791v27.582v110.328c0,5.108-1.277,9.769-3.83,13.982
			C917.029,401.614,913.711,404.937,909.625,407.36z"/>
		<path fill="#272F32" d="M1017.654,249.147c4.084,2.427,7.404,5.746,9.959,9.96c2.553,4.214,3.832,8.877,3.832,13.982v110.328V411
			h-13.791v-3.64v-10.151v-13.791v-23.942v-17.431H962.49v17.431v23.942v13.791v10.151V411h-13.791v-27.582V273.09v-27.582h13.791
			h13.791h27.582C1008.844,245.508,1013.439,246.723,1017.654,249.147z M1017.654,328.254v-31.222V273.09
			c0-3.831-1.342-7.087-4.023-9.769s-5.938-4.022-9.768-4.022h-3.641H979.92h-3.639H962.49v13.791v23.942v31.222H1017.654z"/>
		<path fill="#272F32" d="M1139.473,245.508l-34.477,82.746v33.137V411h-13.791v-49.609v-33.137l-34.479-82.746h13.791
			l27.582,66.273l27.582-66.273H1139.473z"/>
	</g>
</g>
<g>
	<text transform="matrix(1 0 0 1 589.5698 561.9844)" fill="#272F32" font-family="'Nikoleta'" font-size="36">Some cool byline!</text>
</g>
</svg>
