<?xml version="1.0" encoding="utf-8"?>
<!-- Generator: Adobe Illustrator 16.0.0, SVG Export Plug-In . SVG Version: 6.00 Build 0)  -->
<!DOCTYPE svg PUBLIC "-//W3C//DTD SVG 1.1//EN" "http://www.w3.org/Graphics/SVG/1.1/DTD/svg11.dtd">
<svg version="1.1" id="Layer_1" xmlns="http://www.w3.org/2000/svg" xmlns:xlink="http://www.w3.org/1999/xlink" x="0px" y="0px"
	 width="1440px" height="980px" viewBox="0 0 1440 980" enable-background="new 0 0 1440 980" xml:space="preserve">
<rect fill-rule="evenodd" clip-rule="evenodd" fill="#F1EFF0" width="1440" height="979"/>
<path fill-rule="evenodd" clip-rule="evenodd" fill="#272F32" d="M1440,620.311c-19.793-5.841-39.408-11.94-59.498-17.345
	c-5.176-1.394-12.723-1.932-17.68-0.622c-74.305,19.653-148.358,39.678-222.456,59.64c-1.6,0.43-3.013,1.139-7.883,3.019
	c22.208,2.007,41.181,5.181,60.118,5.101c30.677-0.13,50.813,7.76,62.452,25.363c2.759,4.173,7.664,8.744,12.703,13.721
	c34.307-14.285,68.034-29.289,102.955-43.829c4.664,14.021,9.028,27.136,14.229,42.761c12.519-15.484,23.195-28.692,34.193-42.293
	c7.219,2.839,14.043,5.52,20.866,8.201c0,101.658,0,203.316,0,304.974c-69.779-0.04-139.559-0.114-209.336-0.116
	c-384.402-0.008-831.409-0.001-1215.811,0.002c-4.851,0-9.702,0-14.853,0c0-108.51,0-215.813,0-324.27
	c6.833,1.837,12.612,3.342,18.328,4.938c93.462,26.102,186.859,52.297,280.505,78.135c5.868,1.619,14.503,1.83,20.438,0.393
	c50.037-12.123,99.809-24.681,149.486-37.381c8.696-2.223,15.676-2.42,24.506,0.401c61.326,19.596,123.09,38.65,184.457,58.195
	c7.836,2.495,13.714,2.456,21.629,0.238c199.395-55.861,461.558-111.493,660.928-167.389c8.107-2.274,14.032-2.053,21.621,0.372
	c19.115,6.109,38.701,11.636,58.101,17.395C1440,613.379,1440,616.845,1440,620.311z M487.969,710.3
	c-3.357-1.037-8.194-1.63-11.587-0.945c-29.572,5.959-58.974,12.256-88.319,20.539c13.167,0,26.423,0.598,39.478-0.161
	c14.133-0.821,24.841,1.755,33.347,8.846c5.456,4.549,11.654,8.745,18.95,14.159c3.873-4.596,5.907-6.758,7.573-9.026
	c9.968-13.567,9.923-13.537,33.546-9.375c28.568,5.034,57.169,9.996,85.756,14.988c0.179-0.579,0.358-1.159,0.538-1.738
	C567.514,735.126,527.818,722.615,487.969,710.3z"/>
<g>
	<path fill-rule="evenodd" clip-rule="evenodd" fill="#FF3D2E" d="M596.068,687.636c-1.221-1.476-2.854-2.96-3.889-4.78
		c-8.923-15.688-15.408-32.437-21.695-49.311c-9.963-26.763-7.182-16.908-17.421-43.573c-5.013-13.038-10.213-25.995-15.238-39.028
		c-6.216-16.133-12.323-32.309-18.528-48.444c-6.86-17.875-13.877-35.693-20.65-53.601c-4.852-12.822-9.332-25.785-14.124-38.622
		c-4.286-11.496-8.654-22.966-13.217-34.346c-4.157-10.356-8.928-20.473-12.895-30.896c-6.512-17.152-12.499-34.503-18.89-51.716
		c-3.801-10.252-8.062-20.336-11.919-30.576c-4.32-11.473-1.299-14.612,10.796-15.614c5.119-0.421,7.031,2.945,10.607,3.945
		c6.372,1.77,8.432,6.337,9.723,12.46c1.573,7.465,4.271,14.747,6.991,21.918c9.043,23.879,18.341,47.658,27.487,71.501
		c5.892,15.342,11.533,30.787,17.56,46.078c10.005,25.392,19.252,51.067,29.303,76.44c13.216,33.343,26.265,66.762,39.267,100.195
		c5.963,15.342,11.523,30.836,17.494,46.176c4.248,10.94-3.416-14.988-0.026-3.799c2.991,9.872,9.204,18.639,9.575,29.459
		c0.109,3.315,2.715,6.52,4.027,9.83c2.896,7.288,1.785,15.181-3.115,19.088C603.963,683.084,600.107,685.08,596.068,687.636z
		 M476.768,365.115c-0.586,0.061-1.164,0.128-1.751,0.199c0.536,2.619,0.714,5.369,1.652,7.839
		c9.218,24.367,18.549,48.69,27.896,73.006c0.69,1.784,1.706,3.441,2.548,5.165c4.781,9.773,11.381,18.764,12.724,30.026
		c0.214,1.857,1.312,3.591,1.929,5.408c1.661,4.896,3.224,9.833,4.954,14.702c1.266,3.586,2.719,7.104,4.094,10.653
		c1.235-2.079,1.162-3.661,0.758-5.154c-2.225-8.175-4.086-16.485-6.92-24.456c-4.4-12.396-9.264-24.643-14.322-36.785
		c-4.092-9.828-8.924-19.337-13.119-29.115c-2.678-6.242-4.701-12.769-7.211-19.093c-2.23-5.583-4.805-11.029-7.082-16.597
		C480.768,375.681,478.808,370.384,476.768,365.115z M582.721,630.472c2.877,9.023,5.372,16.838,8.203,25.734
		C591.807,646.272,589.125,638.582,582.721,630.472z M538.512,528.368c-0.504,0.169-1.02,0.334-1.529,0.499
		c0.719,2.353,1.43,4.705,2.143,7.062c0.525-0.172,1.052-0.341,1.581-0.513C539.975,533.069,539.248,530.719,538.512,528.368z"/>
	<g>
		<path fill="#FF3D2E" d="M720.935,405.16c-8.161-0.044-14.572,4.186-20.998,8.217c-5.064,3.18-7.032,8.696-4.636,14.252
			c3.298,7.663,7.47,14.954,12.088,24.003c5.916-8.717,11.039-16.062,15.938-23.558c2.229-3.408,4.359-6.965,5.943-10.711
			C732.509,409.72,729.145,405.205,720.935,405.16z"/>
		<path fill="#FF3D2E" d="M743.578,407.097c0.091-5.561-28.355-62.689-28.355-62.689l-40.156-114.243l0.004-0.001
			c-5.556-12.95-11.059-25.92-16.674-38.847c-3.361-7.734-4.986-9.013-13.067-7.999c-6.761,0.85-13.698,1.973-19.997,4.412
			c-13.508,5.222-27.528,9.955-39.724,17.492c-17.159,10.607-33.157,23.133-48.753,36.159c-11.29,9.427-23.768,17.595-36.391,25.22
			c-8.59,5.188-18.084,9.417-29.875,7.665c1.15,4.228,1.867,8.236,3.312,11.967c4.146,10.688,8.68,21.229,12.884,31.904
			c5.915,15.003,11.738,30.043,17.463,45.122c7.015,18.429,13.979,36.876,20.813,55.38c3.518,9.511,6.649,19.16,10.049,28.712
			c1.182,3.336,2.895,6.497,3.896,9.873c5.914,19.993,12.688,39.664,20.918,58.83c1.139,2.638,2.376,5.236,3.475,7.646
			c5.45-3.137,9.811-6.383,14.69-8.327c12.366-4.943,23.483-11.937,33.64-20.314c17.76-14.66,34.161-30.753,49.369-48.097
			c5.585-6.359,11.953-12.048,18.051-17.94c1.241-1.197,2.9-1.948,4.287-2.859c6.945,12.51,13.611,24.443,20.191,36.412
			c1.504,2.748,2.875,5.562,4.275,8.365C720.875,452.618,743.502,412.158,743.578,407.097z"/>
		<path fill="#FF3D2E" d="M959.716,146.907c-4.185-1.481-7.646-4.962-11.708-5.929c-17.877-4.258-36.046-6.849-54.491-6.597
			c-15.713,0.212-31.06,3.004-46.252,6.895c-23.274,5.953-45.166,15.231-66.098,26.916c-19.287,10.781-34.775,26.57-51.953,40.096
			c-12.338,9.72-25.19,18.326-38.996,25.656c-1.822,0.966-3.722,1.811-5.752,2.679c9.245,24.32,34.973,91.635,42.099,106.156
			c8.732,17.798,27.568,59.309,25.427,65.664c-1.634,4.836-23.914,51.274-34.478,73.225c1.233,0.525,2.602,0.933,4.114,1.225
			c11.905,2.262,22.367-1.252,32.182-6.965c6.074-3.531,11.562-8.232,16.795-12.968c5.238-4.749,10.232-9.885,14.624-15.422
			c7.14-9.017,13.505-18.646,20.576-27.728c7.052-9.079,14.565-17.793,21.882-26.664c6.839-8.288,15.574-14.498,23.391-21.688
			c15.396-14.158,32.633-25.527,51.059-34.681c16.854-8.365,34.718-14.996,52.684-20.688c10.054-3.18,20.885-5.538,31.871-4.135
			c-0.233-6.376-2.801-10.071-7.445-11.973c-2.734-1.111-5.183-2.977-7.673-4.623c-14.147-9.35-26.832-20.938-42.271-28.267
			c-11.108-5.274-21.956-11.42-34.553-12.88c-9.921-1.148-19.812-2.645-30.74-4.126c4.633-8.507,8.335-17.083,13.619-24.537
			c6.629-9.354,13.967-18.381,22.068-26.484c11.777-11.791,24.222-22.975,36.968-33.721c6.203-5.24,13.627-9.098,20.72-13.206
			C960.226,150.491,961.582,148.91,959.716,146.907z"/>
	</g>
</g>
<line fill="none" stroke="272F32" stroke-miterlimit="10" x1="643" y1="512.5" x2="782" y2="512.5"/>
<g>
	<text transform="matrix(1 0 0 1 287.8853 410.9995)" font-family="'Nikoleta'" fill="#272F32" font-size="191.5417">Codeaway</text>
</g>
<g>
	<text transform="matrix(1 0 0 1 589.5698 561.9844)" font-family="'Nikoleta'" fill="#272F32" font-size="36">Some cool byline!</text>
</g>
</svg>
