<?xml version="1.0" encoding="utf-8"?>
<!-- Generator: Adobe Illustrator 16.0.0, SVG Export Plug-In . SVG Version: 6.00 Build 0)  -->
<!DOCTYPE svg PUBLIC "-//W3C//DTD SVG 1.1//EN" "http://www.w3.org/Graphics/SVG/1.1/DTD/svg11.dtd">
<svg version="1.1" id="Layer_1" xmlns="http://www.w3.org/2000/svg" xmlns:xlink="http://www.w3.org/1999/xlink" x="0px" y="0px"
	 width="1440px" height="980px" viewBox="0 0 1440 980" enable-background="new 0 0 1440 980" xml:space="preserve">
<g>
	<line fill="none" stroke="#272F32" stroke-width="6" stroke-miterlimit="10" x1="650.5" y1="556.041" x2="789.5" y2="556.041"/>
	<g>
		<g enable-background="new">
			<path fill="#272F32" d="M369.482,417.531v-19.154c0-3.831-1.342-7.087-4.022-9.769c-2.681-2.682-5.938-4.022-9.769-4.022h-3.64
				h-20.303h-3.64c-3.831,0-7.088,1.341-9.77,4.022c-2.682,2.681-4.021,5.938-4.021,9.769v23.942v31.222v13.791v17.432v23.941
				c0,3.831,1.341,7.087,4.021,9.77c2.681,2.682,5.938,4.021,9.77,4.021h3.64h20.303h3.64c3.83,0,7.087-1.341,9.769-4.021
				c2.682-2.682,4.022-5.938,4.022-9.77v-19.154v-4.787v-3.641h13.791v27.582c0,5.107-1.278,9.77-3.831,13.982
				c-2.557,4.214-5.875,7.535-9.96,9.96c-4.215,2.428-8.812,3.64-13.791,3.64h-27.582c-4.98,0-9.577-1.212-13.791-3.64
				c-4.088-2.425-7.407-5.746-9.96-9.96c-2.556-4.215-3.831-8.875-3.831-13.982V398.377c0-5.105,1.275-9.769,3.831-13.982
				c2.553-4.214,5.872-7.533,9.96-9.96c4.214-2.425,8.811-3.64,13.791-3.64h27.582c4.979,0,9.576,1.215,13.791,3.64
				c4.085,2.427,7.403,5.746,9.96,9.96c2.553,4.214,3.831,8.877,3.831,13.982v27.582h-13.791v-3.64V417.531L369.482,417.531z"/>
			<path fill="#272F32" d="M477.511,374.434c4.085,2.427,7.404,5.746,9.96,9.96c2.554,4.214,3.83,8.877,3.83,13.982v110.328
				c0,5.108-1.276,9.769-3.83,13.982c-2.556,4.214-5.875,7.535-9.96,9.96c-4.214,2.428-8.811,3.64-13.791,3.64h-27.582
				c-4.979,0-9.577-1.212-13.791-3.64c-4.088-2.425-7.406-5.746-9.96-9.96c-2.556-4.214-3.831-8.874-3.831-13.982V398.377
				c0-5.105,1.275-9.769,3.831-13.982c2.554-4.214,5.872-7.533,9.96-9.96c4.214-2.425,8.812-3.64,13.791-3.64h27.582
				C468.7,370.795,473.297,372.01,477.511,374.434z M477.511,484.764v-17.432v-13.791v-31.222v-23.942
				c0-3.831-1.341-7.087-4.021-9.769c-2.682-2.682-5.938-4.022-9.77-4.022h-3.639h-20.303h-3.641c-3.831,0-7.087,1.341-9.769,4.022
				c-2.683,2.681-4.022,5.938-4.022,9.769v23.942v31.222v13.791v17.432v23.941c0,3.831,1.341,7.087,4.022,9.77
				c2.681,2.682,5.938,4.021,9.769,4.021h3.641h20.303h3.639c3.831,0,7.087-1.341,9.77-4.021c2.682-2.682,4.021-5.938,4.021-9.77
				V484.764z"/>
			<path fill="#272F32" d="M585.54,374.434c4.085,2.427,7.404,5.746,9.96,9.96c2.553,4.214,3.831,8.877,3.831,13.982v110.328
				c0,5.108-1.278,9.769-3.831,13.982c-2.556,4.214-5.875,7.535-9.96,9.96c-4.214,2.428-8.812,3.64-13.791,3.64h-27.582h-13.791
				h-13.791v-27.582V398.377v-27.582h13.791h13.791h27.582C576.729,370.795,581.326,372.01,585.54,374.434z M585.54,484.764v-17.432
				v-13.791v-31.222v-23.942c0-3.831-1.341-7.087-4.022-9.769c-2.681-2.682-5.938-4.022-9.769-4.022h-3.64h-20.304h-3.64h-13.791
				v13.791v23.942v31.222v13.791v17.432v23.941v13.791h13.791h3.64h20.304h3.64c3.831,0,7.087-1.341,9.769-4.021
				c2.683-2.682,4.022-5.938,4.022-9.77V484.764z"/>
			<path fill="#272F32" d="M638.404,384.586v68.955h55.164v13.791h-55.164v55.164h68.955v13.791h-68.955h-13.791V370.795h13.791
				h68.955v13.791H638.404z"/>
			<path fill="#272F32" d="M801.596,374.434c4.086,2.427,7.404,5.746,9.961,9.96c2.554,4.214,3.83,8.877,3.83,13.982v110.328v27.583
				h-13.791v-3.64v-10.151v-13.791v-23.941v-17.432h-55.164v17.432v23.941v13.791v10.151v3.64h-13.791v-27.582V398.377v-27.582
				h13.791h13.791h27.582C792.785,370.795,797.383,372.01,801.596,374.434z M801.596,453.541v-31.222v-23.942
				c0-3.831-1.34-7.087-4.021-9.769c-2.681-2.682-5.938-4.022-9.771-4.022h-3.639h-20.303h-3.642h-13.791v13.791v23.942v31.222
				H801.596L801.596,453.541z"/>
			<path fill="#272F32" d="M909.625,532.647c-4.213,2.428-8.811,3.64-13.791,3.64c-2.043,0-4.342-0.317-6.895-0.958
				c-2.3-0.509-4.599-1.403-6.896-2.682c-2.299,1.277-4.596,2.173-6.895,2.682c-2.558,0.641-4.855,0.958-6.896,0.958
				c-4.979,0-9.576-1.212-13.791-3.64c-4.088-2.425-7.406-5.746-9.959-9.96c-2.557-4.215-3.832-8.875-3.832-13.982V398.377v-27.582
				h13.791v3.64v10.151v13.791v23.942v17.431v13.791v31.223v23.941c0,3.831,1.342,7.087,4.023,9.77
				c2.681,2.682,5.938,4.021,9.768,4.021c0.639,0,1.213-0.03,1.725-0.096c0.509-0.062,1.084-0.158,1.726-0.287
				c0.637-0.255,1.211-0.479,1.723-0.671c0.51-0.191,1.084-0.479,1.726-0.861v-23.752v-6.319v-8.619v-28.35V439.75h13.791v13.791
				v28.35v8.619v6.319v23.752c0.637,0.383,1.211,0.67,1.723,0.861c0.51,0.19,1.084,0.416,1.725,0.671
				c0.638,0.129,1.213,0.225,1.726,0.287c0.508,0.064,1.082,0.096,1.723,0.096c3.832,0,7.088-1.341,9.771-4.021
				c2.682-2.682,4.021-5.938,4.021-9.77v-23.941v-31.223V439.75v-17.431v-23.942v-13.791v-10.151v-3.64h13.791v27.582v110.328
				c0,5.107-1.277,9.77-3.83,13.982C917.029,526.901,913.711,530.225,909.625,532.647z"/>
			<path fill="#272F32" d="M1017.654,374.434c4.084,2.427,7.403,5.746,9.959,9.96c2.553,4.214,3.832,8.877,3.832,13.982v110.328
				v27.583h-13.791v-3.64v-10.151v-13.791v-23.941v-17.432H962.49v17.432v23.941v13.791v10.151v3.64h-13.791v-27.582V398.377
				v-27.582h13.791h13.791h27.582C1008.844,370.795,1013.439,372.01,1017.654,374.434z M1017.654,453.541v-31.222v-23.942
				c0-3.831-1.342-7.087-4.023-9.769c-2.681-2.682-5.938-4.022-9.768-4.022h-3.642H979.92h-3.639H962.49v13.791v23.942v31.222
				H1017.654L1017.654,453.541z"/>
			<path fill="#272F32" d="M1139.473,370.795l-34.477,82.746v33.137v49.609h-13.791v-49.609v-33.137l-34.479-82.746h13.791
				l27.582,66.273l27.582-66.273H1139.473z"/>
		</g>
	</g>
	<g>
		<text transform="matrix(1 0 0 1 569.8813 604.5254)" fill="#272F32" font-family="'Nikoleta'" font-size="36">Some cool byline!</text>
	</g>
</g>
</svg>
